<svg width="96" height="22" viewBox="0 0 96 22" fill="none" xmlns="http://www.w3.org/2000/svg">
<path d="M7.42896 7.00355e-05L8.31818 13.2614H8.48011L9.42896 0L16.7983 7.00355e-05L10.7812 17.4546H6.02557L0 7.00355e-05H7.42896Z" fill="#F62FE8"/>
<path d="M8.31818 21.9546C7.77841 21.9546 7.31534 21.7756 6.92898 21.4176C6.5483 21.054 6.35796 20.6193 6.35796 20.1137C6.35796 19.6137 6.5483 19.1847 6.92898 18.8267C7.31534 18.4631 7.77841 18.2813 8.31818 18.2813C8.85795 18.2813 9.31818 18.4631 9.69886 18.8267C10.0852 19.1847 10.2784 19.6137 10.2784 20.1137C10.2784 20.6193 10.0852 21.054 9.69886 21.4176C9.31818 21.7756 8.85795 21.9546 8.31818 21.9546Z" fill="#F62FE8"/>
<path d="M31.4687 2.02274L35.6875 15.2841H35.8494L40.0767 2.02274H44.1676L38.1506 19.4773H33.3949L27.3693 2.02274H31.4687Z" fill="white"/>
<path d="M45.4803 19.4773V6.38638H49.111V19.4773H45.4803ZM47.3041 4.69888C46.7644 4.69888 46.3013 4.5199 45.9149 4.16194C45.5343 3.79831 45.3439 3.36365 45.3439 2.85797C45.3439 2.35797 45.5343 1.92899 45.9149 1.57104C46.3013 1.2074 46.7644 1.02558 47.3041 1.02558C47.8439 1.02558 48.3041 1.2074 48.6848 1.57104C49.0712 1.92899 49.2644 2.35797 49.2644 2.85797C49.2644 3.36365 49.0712 3.79831 48.6848 4.16194C48.3041 4.5199 47.8439 4.69888 47.3041 4.69888Z" fill="white"/>
<path d="M56.1232 19.6904C55.1289 19.6904 54.2283 19.4347 53.4215 18.9233C52.6204 18.4063 51.984 17.6477 51.5124 16.6477C51.0465 15.6421 50.8135 14.4091 50.8135 12.9489C50.8135 11.4489 51.055 10.2017 51.538 9.2074C52.0209 8.2074 52.663 7.46024 53.4641 6.96592C54.2709 6.46592 55.1545 6.21592 56.1147 6.21592C56.8476 6.21592 57.4584 6.34092 57.9471 6.59092C58.4414 6.83524 58.8391 7.14206 59.1403 7.51138C59.4471 7.87501 59.68 8.23297 59.8391 8.58524H59.9499V2.02274H63.5721V19.4773H59.9925V17.3807H59.8391C59.6687 17.7443 59.4272 18.1051 59.1147 18.4631C58.8079 18.8154 58.4073 19.108 57.913 19.3409C57.4243 19.5739 56.8278 19.6904 56.1232 19.6904ZM57.2738 16.8011C57.859 16.8011 58.3533 16.6421 58.7567 16.3239C59.1658 16 59.4783 15.5483 59.6942 14.9688C59.9158 14.3892 60.0266 13.7102 60.0266 12.9318C60.0266 12.1534 59.9187 11.4773 59.7028 10.9034C59.4868 10.3296 59.1743 9.88638 58.7653 9.57388C58.3562 9.26138 57.859 9.10513 57.2738 9.10513C56.6772 9.10513 56.1743 9.26706 55.7653 9.59092C55.3562 9.91479 55.0465 10.3636 54.8363 10.9375C54.626 11.5114 54.5209 12.1761 54.5209 12.9318C54.5209 13.6932 54.626 14.3665 54.8363 14.9517C55.0522 15.5313 55.3618 15.9858 55.7653 16.3154C56.1743 16.6392 56.6772 16.8011 57.2738 16.8011Z" fill="white"/>
<path d="M72.8002 6.38638V9.11365H64.9167V6.38638H72.8002ZM66.7065 3.25001H70.3372V15.4546C70.3372 15.7898 70.3883 16.0511 70.4906 16.2386C70.5928 16.4205 70.7349 16.5483 70.9167 16.6222C71.1042 16.696 71.3201 16.733 71.5644 16.733C71.7349 16.733 71.9053 16.7188 72.0758 16.6904C72.2462 16.6563 72.3769 16.6307 72.4678 16.6136L73.0389 19.3154C72.857 19.3722 72.6014 19.4375 72.2718 19.5114C71.9423 19.5909 71.5417 19.6392 71.0701 19.6563C70.1951 19.6904 69.4281 19.5739 68.769 19.3068C68.1156 19.0398 67.607 18.625 67.2434 18.0625C66.8798 17.5 66.7008 16.7898 66.7065 15.9318V3.25001Z" fill="white"/>
<path d="M80.2706 19.733C78.924 19.733 77.7649 19.4602 76.7933 18.9148C75.8274 18.3636 75.0831 17.5852 74.5603 16.5796C74.0376 15.5682 73.7762 14.3722 73.7762 12.9915C73.7762 11.6449 74.0376 10.4631 74.5603 9.44604C75.0831 8.42899 75.8189 7.63638 76.7677 7.06819C77.7223 6.50001 78.8416 6.21592 80.1257 6.21592C80.9893 6.21592 81.7933 6.35513 82.5376 6.63354C83.2876 6.90626 83.941 7.31819 84.4978 7.86933C85.0603 8.42047 85.4978 9.11365 85.8103 9.94888C86.1228 10.7784 86.2791 11.75 86.2791 12.8636V13.8608H75.2251V11.6108H82.8615C82.8615 11.0881 82.7478 10.625 82.5206 10.2216C82.2933 9.81819 81.9779 9.50285 81.5745 9.27558C81.1768 9.04263 80.7137 8.92615 80.1853 8.92615C79.6342 8.92615 79.1456 9.05399 78.7194 9.30967C78.299 9.55967 77.9694 9.89774 77.7308 10.3239C77.4922 10.7443 77.37 11.2131 77.3643 11.7301V13.8693C77.3643 14.5171 77.4836 15.0767 77.7223 15.5483C77.9666 16.0199 78.3103 16.3835 78.7535 16.6392C79.1967 16.8949 79.7223 17.0227 80.3302 17.0227C80.7336 17.0227 81.103 16.9659 81.4382 16.8523C81.7734 16.7386 82.0603 16.5682 82.299 16.3409C82.5376 16.1136 82.7194 15.8352 82.8444 15.5057L86.2024 15.7273C86.0319 16.5341 85.6825 17.2386 85.1541 17.8409C84.6314 18.4375 83.9552 18.9034 83.1257 19.2386C82.3018 19.5682 81.3501 19.733 80.2706 19.733Z" fill="white"/>
<path d="M87.9284 19.4773V6.38638H91.4483V8.67047H91.5847C91.8233 7.85797 92.2239 7.24433 92.7864 6.82956C93.3489 6.4091 93.9966 6.19888 94.7295 6.19888C94.9114 6.19888 95.1074 6.21024 95.3176 6.23297C95.5278 6.25569 95.7125 6.28694 95.8716 6.32672V9.54831C95.7011 9.49717 95.4653 9.45172 95.1642 9.41194C94.8631 9.37217 94.5875 9.35229 94.3375 9.35229C93.8034 9.35229 93.3261 9.46876 92.9057 9.70172C92.4909 9.92899 92.1614 10.2472 91.917 10.6563C91.6784 11.0654 91.5591 11.5369 91.5591 12.071V19.4773H87.9284Z" fill="white"/>
</svg>
